{"title":"The Dear And Departed - Chapters - 2010 (CD - FLAC - Lossless)","uid":6176875,"size":148347703,"categoryP":"audio","categoryS":"flac","magnet":"?xt=urn:btih:2734a50b5228ccc560ad8acc2d34fe886d63409c&amp;dn=The+Dear+And+Departed+-+Chapters+-+2010+%28CD+-+FLAC+-+Lossless%29&amp;tr=udp%3A%2F%2Ftracker.openbittorrent.com%3A80&amp;tr=udp%3A%2F%2Fopen.demonii.com%3A1337&amp;tr=udp%3A%2F%2Ftracker.coppersurfer.tk%3A6969&amp;tr=udp%3A%2F%2Fexodus.desync.com%3A6969","seeders":2,"leechers":0,"uploader":"rezar1337","files":7,"time":1297800726,"description":"Exact Audio Copy V0.99 prebeta 5 from 4. May 2009\n\nEAC extraction logfile from 5. May 2010, 2:04\n\nThe Dear and Departed / Chapters\n\nUsed drive  : Optiarc DVD RW AD-7560S   Adapter: 0  ID: 1\n\nRead mode               : Secure\nUtilize accurate stream : Yes\nDefeat audio cache      : Yes\nMake use of C2 pointers : No\n\nRead offset correction                      : 6\nOverread into Lead-In and Lead-Out          : No\nFill up missing offset samples with silence : Yes\nDelete leading and trailing silent blocks   : No\nNull samples used in CRC calculations       : Yes\nUsed interface                              : Native Win32 interface for Win NT &amp; 2000\nGap handling                                : Appended to previous track\n\nUsed output format              : User Defined Encoder\nSelected bitrate                : 320 kBit/s\nQuality                         : High\nAdd ID3 tag                     : No\nCommand line compressor         : C:\\Program Files (x86)\\Exact Audio Copy\\Flac\\flac.exe\nAdditional command line options : -V -8 -T &quot;artist=%a&quot; -T &quot;title=%t&quot; -T &quot;album=%g&quot; -T &quot;date=%y&quot; -T &quot;tracknumber=%n&quot; -T &quot;genre=%m&quot; %s \n\n\nTOC of the extracted CD\n\n     Track |   Start  |  Length  | Start sector | End sector \n    ---------------------------------------------------------\n        1  |  0:00.00 |  4:10.46 |         0    |    18795   \n        2  |  4:10.46 |  3:06.06 |     18796    |    32751   \n        3  |  7:16.52 |  3:50.17 |     32752    |    50018   \n        4  | 11:06.69 |  3:52.01 |     50019    |    67419   \n        5  | 14:58.70 |  4:28.47 |     67420    |    87566   \n\n\nTrack  1\n\n     Filename H:\\Downloads\\Music\\The Dear And Departed - Chapters - 2010 (CD - FLAC - Lossless)\\The Dear and Departed - Chapters - 01 - Matter of Time.wav\n\n     Pre-gap length  0:00:02.00\n\n     Peak level 100.0 %\n     Track quality 100.0 %\n     Test CRC FA701406\n     Copy CRC FA701406\n     Track not present in AccurateRip database\n     Copy OK\n\nTrack  2\n\n     Filename H:\\Downloads\\Music\\The Dear And Departed - Chapters - 2010 (CD - FLAC - Lossless)\\The Dear and Departed - Chapters - 02 - Did You Hear a Knock .wav\n\n     Peak level 100.0 %\n     Track quality 100.0 %\n     Test CRC 71874565\n     Copy CRC 71874565\n     Track not present in AccurateRip database\n     Copy OK\n\nTrack  3\n\n     Filename H:\\Downloads\\Music\\The Dear And Departed - Chapters - 2010 (CD - FLAC - Lossless)\\The Dear and Departed - Chapters - 03 - Tambourine Love.wav\n\n     Peak level 100.0 %\n     Track quality 100.0 %\n     Test CRC C6DBDBDF\n     Copy CRC C6DBDBDF\n     Track not present in AccurateRip database\n     Copy OK\n\nTrack  4\n\n     Filename H:\\Downloads\\Music\\The Dear And Departed - Chapters - 2010 (CD - FLAC - Lossless)\\The Dear and Departed - Chapters - 04 - It Looks Like Rain.wav\n\n     Peak level 100.0 %\n     Track quality 100.0 %\n     Test CRC 8CEE187D\n     Copy CRC 8CEE187D\n     Track not present in AccurateRip database\n     Copy OK\n\nTrack  5\n\n     Filename H:\\Downloads\\Music\\The Dear And Departed - Chapters - 2010 (CD - FLAC - Lossless)\\The Dear and Departed - Chapters - 05 - There For The Taking.wav\n\n     Peak level 100.0 %\n     Track quality 99.9 %\n     Test CRC BA0DA204\n     Copy CRC BA0DA204\n     Track not present in AccurateRip database\n     Copy OK\n\n\nNone of the tracks are present in the AccurateRip database\n\nNo errors occurred\n\nEnd of status report\n","torrent":{"xt":"urn:btih:2734a50b5228ccc560ad8acc2d34fe886d63409c","amp;dn":"The+Dear+And+Departed+-+Chapters+-+2010+%28CD+-+FLAC+-+Lossless%29","amp;tr":["udp%3A%2F%2Ftracker.openbittorrent.com%3A80","udp%3A%2F%2Fopen.demonii.com%3A1337","udp%3A%2F%2Ftracker.coppersurfer.tk%3A6969","udp%3A%2F%2Fexodus.desync.com%3A6969"],"infoHash":"2734a50b5228ccc560ad8acc2d34fe886d63409c","infoHashBuffer":{"type":"Buffer","data":[39,52,165,11,82,40,204,197,96,173,138,204,45,52,254,136,109,99,64,156]},"announce":[],"urlList":[]}}